<svg fill="#1A1A1A" xmlns="http://www.w3.org/2000/svg"  viewBox="0 0 24 24" width="48px" height="48px"><path d="M3,3v18h18V3H3z M14.483,17.25h-0.014c-0.685,0-1.24-0.555-1.24-1.24v-1.1c0-2.306-0.006-2.335-0.161-2.616 c-0.22-0.372-0.457-0.542-0.832-0.583c-0.638-0.07-1.081,0.146-1.333,0.668c-0.12,0.24-0.135,0.492-0.141,2.517 c-0.003,0.386-0.006,0.757-0.009,1.087c-0.006,0.628-0.461,1.183-1.084,1.259c-0.755,0.093-1.397-0.494-1.397-1.23L8.268,7.292 c0-0.678,0.521-1.27,1.199-1.292c0.701-0.023,1.278,0.538,1.281,1.234l0.011,2.634c0.001,0.184,0.219,0.281,0.356,0.159l0,0 c0.495-0.436,0.911-0.589,1.699-0.618c0.519-0.015,0.73,0.006,1.093,0.135c0.797,0.267,1.36,0.815,1.653,1.623 c0.114,0.317,0.129,0.647,0.15,3.214l0.013,1.617C15.729,16.688,15.172,17.25,14.483,17.25z"/></svg>